<svg width="24" height="23" viewBox="0 0 24 23" fill="none" xmlns="http://www.w3.org/2000/svg">
<ellipse cx="11.7473" cy="11.5519" rx="11.4553" ry="11.4484" fill="#E2F5FA"/>
<path d="M15.1536 12.2594H8.34056C7.95633 12.2594 7.6377 11.9409 7.6377 11.5569C7.6377 11.1729 7.95633 10.8545 8.34056 10.8545H15.1536C15.5379 10.8545 15.8565 11.1729 15.8565 11.5569C15.8565 11.9409 15.5379 12.2594 15.1536 12.2594Z" fill="#292D32"/>
<path d="M11.7702 15.6591C11.386 15.6591 11.0674 15.3407 11.0674 14.9567V8.14775C11.0674 7.76375 11.386 7.44531 11.7702 7.44531C12.1545 7.44531 12.4731 7.76375 12.4731 8.14775V14.9567C12.4731 15.35 12.1638 15.6591 11.7702 15.6591Z" fill="#292D32"/>
</svg>
