<svg width="24" height="25" viewBox="0 0 24 25" fill="none" xmlns="http://www.w3.org/2000/svg">
<g clip-path="url(#clip0_1098_25517)">
<path d="M10.9244 21.1094L12.031 22.3214L21.4223 12.0357C23.8844 9.33909 23.8844 4.9488 21.4223 2.25223C18.9587 -0.446056 14.9533 -0.446056 12.4896 2.25223L2.31573 13.3951C0.284079 15.6202 0.284079 19.2391 2.31573 21.4642C3.32999 22.5751 4.66512 23.1339 6.00025 23.1339C7.33538 23.1339 8.66895 22.5768 9.68478 21.4642L19.0761 11.1785C19.8509 10.3299 20.2766 9.20194 20.2766 8.00194C20.2766 6.80194 19.8509 5.67394 19.0745 4.82366C17.525 3.12652 14.8218 3.12652 13.2723 4.82366L4.66356 14.2522L5.77017 15.4642L14.3789 6.03566C15.3352 4.98823 17.0116 4.98823 17.9679 6.03566C18.4469 6.56023 18.7114 7.25794 18.7114 8.00194C18.7114 8.74594 18.4469 9.44366 17.9679 9.96651L8.5766 20.2522C7.15538 21.8088 4.84356 21.8088 3.42234 20.2522C2.00112 18.6957 2.00112 16.1637 3.42234 14.6071L13.5963 3.46423C15.4495 1.43452 18.4625 1.43452 20.3157 3.46423C22.169 5.49394 22.169 8.79394 20.3157 10.8237L10.9244 21.1094Z" fill="#9B9B9B"/>
</g>
<defs>
<clipPath id="clip0_1098_25517">
<rect width="24" height="24" fill="white" transform="translate(0 0.00195312)"/>
</clipPath>
</defs>
</svg>
