<svg width="22" height="22" viewBox="0 0 22 22" fill="none" xmlns="http://www.w3.org/2000/svg">
<path d="M20.1393 16.8027C20.1393 17.1327 20.066 17.4718 19.9102 17.8018C19.7543 18.1318 19.5527 18.4435 19.2868 18.7368C18.8377 19.2318 18.3427 19.5893 17.7835 19.8185C17.2335 20.0477 16.6377 20.1668 15.996 20.1668C15.061 20.1668 14.0618 19.9468 13.0077 19.4977C11.9535 19.0485 10.8993 18.4435 9.85433 17.6827C8.80016 16.9127 7.801 16.0602 6.84766 15.116C5.9035 14.1627 5.051 13.1635 4.29016 12.1185C3.5385 11.0735 2.9335 10.0285 2.4935 8.99266C2.0535 7.94766 1.8335 6.9485 1.8335 5.99516C1.8335 5.37183 1.9435 4.776 2.1635 4.226C2.3835 3.66683 2.73183 3.1535 3.21766 2.69516C3.80433 2.11766 4.446 1.8335 5.12433 1.8335C5.381 1.8335 5.63766 1.8885 5.86683 1.9985C6.10516 2.1085 6.316 2.2735 6.481 2.51183L8.60766 5.50933C8.77266 5.7385 8.89183 5.94933 8.97433 6.151C9.05683 6.3435 9.10266 6.536 9.10266 6.71016C9.10266 6.93016 9.0385 7.15016 8.91016 7.361C8.791 7.57183 8.61683 7.79183 8.39683 8.01183L7.70016 8.736C7.59933 8.83683 7.5535 8.956 7.5535 9.10266C7.5535 9.176 7.56266 9.24016 7.581 9.3135C7.6085 9.38683 7.636 9.44183 7.65433 9.49683C7.81933 9.79933 8.1035 10.1935 8.50683 10.6702C8.91933 11.1468 9.35933 11.6327 9.836 12.1185C10.331 12.6043 10.8077 13.0535 11.2935 13.466C11.7702 13.8693 12.1643 14.1443 12.476 14.3093C12.5218 14.3277 12.5768 14.3552 12.641 14.3827C12.7143 14.4102 12.7877 14.4193 12.8702 14.4193C13.026 14.4193 13.1452 14.3643 13.246 14.2635L13.9427 13.576C14.1718 13.3468 14.3918 13.1727 14.6027 13.0627C14.8135 12.9343 15.0243 12.8702 15.2535 12.8702C15.4277 12.8702 15.611 12.9068 15.8127 12.9893C16.0143 13.0718 16.2252 13.191 16.4543 13.3468L19.4885 15.501C19.7268 15.666 19.8918 15.8585 19.9927 16.0877C20.0843 16.3168 20.1393 16.546 20.1393 16.8027Z" stroke="#292D32" stroke-width="1.5" stroke-miterlimit="10"/>
</svg>
