<svg width="19" height="18" viewBox="0 0 19 18" fill="none" xmlns="http://www.w3.org/2000/svg">
<path d="M5.57013 16.5H13.4301C15.5001 16.5 16.3251 15.2325 16.4226 13.6875L16.8126 7.4925C16.9176 5.8725 15.6276 4.5 14.0001 4.5C13.5426 4.5 13.1226 4.2375 12.9126 3.8325L12.3726 2.745C12.0276 2.0625 11.1276 1.5 10.3626 1.5H8.64513C7.87263 1.5 6.97263 2.0625 6.62763 2.745L6.08763 3.8325C5.87763 4.2375 5.45763 4.5 5.00013 4.5C3.37263 4.5 2.08263 5.8725 2.18763 7.4925L2.57763 13.6875C2.66763 15.2325 3.50013 16.5 5.57013 16.5Z" stroke="#292D32" stroke-width="1.5" stroke-linecap="round" stroke-linejoin="round"/>
<path d="M8.375 6H10.625" stroke="#292D32" stroke-width="1.5" stroke-linecap="round" stroke-linejoin="round"/>
<path d="M9.5 13.5C10.8425 13.5 11.9375 12.405 11.9375 11.0625C11.9375 9.72 10.8425 8.625 9.5 8.625C8.1575 8.625 7.0625 9.72 7.0625 11.0625C7.0625 12.405 8.1575 13.5 9.5 13.5Z" stroke="#292D32" stroke-width="1.5" stroke-linecap="round" stroke-linejoin="round"/>
</svg>
