<svg width="18" height="18" viewBox="0 0 18 18" fill="none" xmlns="http://www.w3.org/2000/svg">
<mask id="mask0_1524_41570" style="mask-type:alpha" maskUnits="userSpaceOnUse" x="0" y="0" width="18" height="18">
<circle cx="9" cy="9" r="9" fill="#D9D9D9"/>
</mask>
<g mask="url(#mask0_1524_41570)">
<path d="M9.00002 0C7.21999 0 5.47992 0.527842 3.99988 1.51677C2.51983 2.50571 1.36628 3.91132 0.68509 5.55586C0.00389932 7.20039 -0.174331 9.01 0.172937 10.7558C0.520204 12.5016 1.37738 14.1053 2.63604 15.364C3.89472 16.6226 5.49838 17.4798 7.24421 17.8271C8.99004 18.1743 10.7996 17.9961 12.4441 17.315C14.0887 16.6337 15.4943 15.4802 16.4833 14.0001C17.4722 12.5201 18 10.78 18 9.00001C18 7.81811 17.7673 6.64779 17.315 5.55586C16.8627 4.46392 16.1998 3.47177 15.364 2.63605C14.5283 1.80032 13.5361 1.13738 12.4441 0.685085C11.3522 0.232793 10.1819 0 9.00002 0ZM13.2391 6.93901L8.73902 11.439C8.65536 11.5234 8.55582 11.5904 8.44614 11.636C8.33647 11.6817 8.21883 11.7052 8.10002 11.7052C7.98121 11.7052 7.86358 11.6817 7.7539 11.636C7.64423 11.5904 7.54468 11.5234 7.46102 11.439L5.66102 9.63901C5.49154 9.46954 5.39633 9.23968 5.39633 9.00001C5.39633 8.76034 5.49154 8.53049 5.66102 8.36101C5.83049 8.19154 6.06035 8.09632 6.30001 8.09632C6.53969 8.09632 6.76955 8.19154 6.93902 8.36101L8.10002 9.53101L11.961 5.66101C12.1305 5.49154 12.3604 5.39632 12.6 5.39632C12.8397 5.39632 13.0695 5.49154 13.2391 5.66101C13.4085 5.83048 13.5037 6.06034 13.5037 6.3C13.5037 6.53968 13.4085 6.76954 13.2391 6.93901Z" fill="#156779"/>
</g>
</svg>
