<svg width="17" height="17" viewBox="0 0 17 17" fill="none" xmlns="http://www.w3.org/2000/svg">
<path d="M6.2901 3.25826C5.72343 0.807429 2.03302 0.800346 1.46635 3.25826C1.13343 4.69618 2.04718 5.91451 2.84052 6.67243C3.42135 7.21785 4.3351 7.21785 4.91593 6.67243C5.70927 5.91451 6.61593 4.69618 6.2901 3.25826ZM3.90302 4.3916C3.51343 4.3916 3.19468 4.07285 3.19468 3.68326C3.19468 3.29368 3.50635 2.97493 3.89593 2.97493H3.90302C4.29968 2.97493 4.61135 3.29368 4.61135 3.68326C4.61135 4.07285 4.29968 4.3916 3.90302 4.3916Z" fill="#156779"/>
<path d="M15.5198 11.7583C14.9532 9.30743 11.2486 9.30035 10.6748 11.7583C10.3419 13.1962 11.2557 14.4145 12.0561 15.1724C12.6369 15.7178 13.5577 15.7178 14.1386 15.1724C14.939 14.4145 15.8527 13.1962 15.5198 11.7583ZM13.1257 12.8916C12.7361 12.8916 12.4173 12.5728 12.4173 12.1833C12.4173 11.7937 12.729 11.4749 13.1186 11.4749H13.1257C13.5152 11.4749 13.834 11.7937 13.834 12.1833C13.834 12.5728 13.5152 12.8916 13.1257 12.8916Z" fill="#156779"/>
<path d="M8.49986 13.9894H6.60152C5.77986 13.9894 5.06444 13.4936 4.78111 12.7286C4.49069 11.9636 4.70319 11.1207 5.31944 10.5753L10.979 5.624C11.319 5.3265 11.3261 4.92275 11.2269 4.6465C11.1207 4.37025 10.8515 4.07275 10.3982 4.07275H8.49986C8.20944 4.07275 7.96861 3.83192 7.96861 3.5415C7.96861 3.25109 8.20944 3.01025 8.49986 3.01025H10.3982C11.2199 3.01025 11.9353 3.50609 12.2186 4.27109C12.509 5.03609 12.2965 5.879 11.6803 6.42442L6.02069 11.3757C5.68069 11.6732 5.67361 12.0769 5.77277 12.3532C5.87902 12.6294 6.14819 12.9269 6.60152 12.9269H8.49986C8.79027 12.9269 9.03111 13.1678 9.03111 13.4582C9.03111 13.7486 8.79027 13.9894 8.49986 13.9894Z" fill="#156779"/>
</svg>
