<svg width="27" height="25" viewBox="0 0 27 25" fill="none" xmlns="http://www.w3.org/2000/svg">
<path d="M23.4651 7.33018H17.5185C17.3485 7.33018 17.2725 7.21453 17.2725 7.13018C17.2725 7.04582 17.3485 6.93018 17.5185 6.93018H23.4651C23.6351 6.93018 23.7111 7.04582 23.7111 7.13018C23.7111 7.21453 23.6351 7.33018 23.4651 7.33018Z" fill="#156779" stroke="#156779"/>
<path d="M7.60743 7.33018H3.64297C3.47303 7.33018 3.39697 7.21453 3.39697 7.13018C3.39697 7.04582 3.47303 6.93018 3.64297 6.93018H7.60743C7.77737 6.93018 7.85343 7.04582 7.85343 7.13018C7.85343 7.21006 7.7715 7.33018 7.60743 7.33018Z" fill="#156779" stroke="#156779"/>
<path d="M15.2814 7.13018C15.2814 9.00606 13.6511 10.5802 11.5719 10.5802C9.49268 10.5802 7.8623 9.00606 7.8623 7.13018C7.8623 5.25429 9.49268 3.68018 11.5719 3.68018C13.6511 3.68018 15.2814 5.25429 15.2814 7.13018Z" fill="#156779" stroke="#156779"/>
<path d="M23.4653 17.5602H19.5009C19.3309 17.5602 19.2549 17.4445 19.2549 17.3602C19.2549 17.2758 19.3309 17.1602 19.5009 17.1602H23.4653C23.6353 17.1602 23.7113 17.2758 23.7113 17.3602C23.7113 17.4445 23.6353 17.5602 23.4653 17.5602Z" fill="#156779" stroke="#156779"/>
<path d="M9.58966 17.5602H3.64297C3.47303 17.5602 3.39697 17.4445 3.39697 17.3602C3.39697 17.2758 3.47303 17.1602 3.64297 17.1602H9.58966C9.7596 17.1602 9.83566 17.2758 9.83566 17.3602C9.83566 17.44 9.75373 17.5602 9.58966 17.5602Z" fill="#156779" stroke="#156779"/>
<path d="M19.2458 17.3699C19.2458 19.2458 17.6154 20.8199 15.5362 20.8199C13.457 20.8199 11.8267 19.2458 11.8267 17.3699C11.8267 15.494 13.457 13.9199 15.5362 13.9199C17.6154 13.9199 19.2458 15.494 19.2458 17.3699Z" fill="#156779" stroke="#156779"/>
</svg>
