<svg width="24" height="24" viewBox="0 0 24 24" fill="none" xmlns="http://www.w3.org/2000/svg">
<path d="M11.9999 13.6699C10.1452 13.6699 8.62988 12.163 8.62988 10.2999C8.62988 8.43861 10.1435 6.93994 11.9999 6.93994C13.8546 6.93994 15.3699 8.44692 15.3699 10.3099C15.3699 12.1713 13.8563 13.6699 11.9999 13.6699ZM11.9999 7.43994C10.4251 7.43994 9.12988 8.72243 9.12988 10.3099C9.12988 11.8961 10.4137 13.1799 11.9999 13.1799C13.586 13.1799 14.8699 11.8961 14.8699 10.3099C14.8699 8.72243 13.5747 7.43994 11.9999 7.43994Z" fill="black" stroke="#156779"/>
<path d="M3.37716 8.44124L3.37728 8.44068C4.42333 3.83243 8.44285 1.75 11.9997 1.75H11.9997H11.9997H11.9997H11.9997H11.9997H11.9997H11.9997H11.9998H11.9998H11.9998H11.9998H11.9998H11.9998H11.9998H11.9998H11.9998H11.9998H11.9998H11.9998H11.9999H11.9999H11.9999H11.9999H11.9999H11.9999H11.9999H11.9999H11.9999H11.9999H11.9999H12H12H12H12H12H12H12H12H12H12.0001H12.0001H12.0001H12.0001H12.0001H12.0001H12.0001H12.0001H12.0002H12.0002H12.0002H12.0002H12.0002H12.0002H12.0002H12.0002H12.0002H12.0002H12.0002H12.0002H12.0002H12.0003H12.0003H12.0003H12.0003H12.0003H12.0003H12.0003H12.0003H12.0003H12.0003H12.0003H12.0004H12.0004H12.0004H12.0004H12.0004H12.0004H12.0004H12.0004H12.0004H12.0004H12.0005H12.0005H12.0005H12.0005H12.0005H12.0005H12.0005H12.0005H12.0005H12.0006H12.0006H12.0006H12.0006H12.0006H12.0006H12.0006H12.0006H12.0007H12.0007H12.0007H12.0007H12.0007H12.0007H12.0007H12.0007H12.0008H12.0008H12.0008H12.0008H12.0008H12.0008H12.0008H12.0009H12.0009H12.0009H12.0009H12.0009H12.0009H12.0009H12.001H12.001H12.001H12.001H12.001H12.001H12.001H12.0011H12.0011H12.0011H12.0011H12.0011H12.0011H12.0012H12.0012H12.0012H12.0012H12.0012H12.0012H12.0013H12.0013H12.0013H12.0013H12.0013H12.0013H12.0014H12.0014H12.0014H12.0014H12.0014H12.0014H12.0015H12.0015H12.0015H12.0015H12.0015H12.0016H12.0016H12.0016H12.0016H12.0016H12.0017H12.0017H12.0017H12.0017H12.0017H12.0018H12.0018H12.0018H12.0018H12.0018H12.0019H12.0019H12.0019H12.0019H12.002H12.002H12.002H12.002H12.002H12.0021H12.0021H12.0021H12.0021H12.0022H12.0022H12.0022H12.0022H12.0022H12.0023H12.0023H12.0023H12.0023H12.0024H12.0024H12.0024H12.0024H12.0025H12.0025H12.0025H12.0025H12.0026H12.0026H12.0026H12.0026H12.0027H12.0027H12.0027H12.0027H12.0028H12.0028H12.0028H12.0029H12.0029H12.0029H12.0029H12.003H12.003H12.003H12.003H12.0031H12.0031H12.0031H12.0032H12.0032H12.0032H12.0033H12.0033H12.0033H12.0033H12.0034H12.0034H12.0034H12.0035H12.0035H12.0035H12.0036H12.0036H12.0036H12.0036H12.0037H12.0037H12.0037H12.0038H12.0038H12.0038H12.0039H12.0039H12.0039H12.004H12.004H12.004H12.0041H12.0041H12.0041H12.0042H12.0042H12.0042H12.0043H12.0043H12.0043H12.0044H12.0044H12.0045H12.0045H12.0045H12.0046H12.0046H12.0046H12.0047H12.0047H12.0047H12.0048H12.0048H12.0049H12.0049H12.0049H12.005H12.005H12.0051H12.0051H12.0051H12.0052H12.0052H12.0052H12.0053H12.0053H12.0054H12.0054H12.0054H12.0055H12.0055H12.0056H12.0056H12.0057H12.0057H12.0057H12.0058H12.0058H12.0059H12.0059H12.0059H12.006H12.006H12.0061H12.0061H12.0062H12.0062H12.0063H12.0063H12.0063H12.0064H12.0064H12.0065H12.0065H12.0066H12.0066H12.0067H12.0067H12.0068H12.0068H12.0068H12.0069H12.0069H12.007H12.007H12.0071H12.0071H12.0072H12.0072H12.0073H12.0073H12.0074H12.0074H12.0075H12.0075H12.0076H12.0076H12.0077H12.0077H12.0078H12.0078H12.0079H12.0079H12.008H12.008H12.0081H12.0081H12.0082H12.0082H12.0083H12.0083H12.0084H12.0085H12.0085H12.0086H12.0086H12.0087H12.0087H12.0088H12.0088H12.0089H12.0089H12.009H12.0091H12.0091H12.0092H12.0092H12.0093H12.0093H12.0094H12.0095H12.0095H12.0096H12.0096H12.0097C15.5662 1.75 19.5858 3.83212 20.632 8.45047C21.7908 13.5701 18.704 17.9174 15.7836 20.7291C14.7188 21.7479 13.3536 22.26 11.9997 22.26C10.6458 22.26 9.2806 21.7479 8.21575 20.7291C5.2956 17.9176 2.20891 13.5606 3.37716 8.44124ZM20.1475 8.55022L20.147 8.54822C19.0782 3.88795 15.0584 2.25 11.9997 2.25C8.94064 2.25 4.93071 3.88835 3.87222 8.54874C2.72945 13.5337 5.86947 17.7675 8.57292 20.3602C10.4967 22.2168 13.5134 22.2166 15.4369 20.3597C18.1302 17.7672 21.2691 13.5341 20.1475 8.55022Z" fill="black" stroke="#156779"/>
</svg>
