<svg width="25" height="24" viewBox="0 0 25 24" fill="none" xmlns="http://www.w3.org/2000/svg">
<path d="M21.3081 8.45C20.2676 3.83 16.2739 1.75 12.7658 1.75C12.7658 1.75 12.7658 1.75 12.7559 1.75C9.25769 1.75 5.25409 3.82 4.21355 8.44C3.05409 13.6 6.18562 17.97 9.01985 20.72C10.0703 21.74 11.4181 22.25 12.7658 22.25C14.1135 22.25 15.4613 21.74 16.5018 20.72C19.3361 17.97 22.4676 13.61 21.3081 8.45ZM12.7658 13.46C11.0415 13.46 9.64418 12.05 9.64418 10.31C9.64418 8.57 11.0415 7.16 12.7658 7.16C14.4901 7.16 15.8874 8.57 15.8874 10.31C15.8874 12.05 14.4901 13.46 12.7658 13.46Z" fill="white"/>
</svg>
