<svg width="20" height="20" viewBox="0 0 20 20" fill="none" xmlns="http://www.w3.org/2000/svg">
<path d="M9.99993 13.6084C8.00827 13.6084 6.3916 11.9917 6.3916 10.0001C6.3916 8.00839 8.00827 6.39172 9.99993 6.39172C11.9916 6.39172 13.6083 8.00839 13.6083 10.0001C13.6083 11.9917 11.9916 13.6084 9.99993 13.6084ZM9.99993 7.64172C8.69993 7.64172 7.6416 8.70006 7.6416 10.0001C7.6416 11.3001 8.69993 12.3584 9.99993 12.3584C11.2999 12.3584 12.3583 11.3001 12.3583 10.0001C12.3583 8.70006 11.2999 7.64172 9.99993 7.64172Z" fill="#9B9B9B"/>
<path d="M10.0004 17.5166C6.86706 17.5166 3.90872 15.6833 1.87539 12.4999C0.992057 11.1249 0.992057 8.88328 1.87539 7.49994C3.91706 4.31661 6.87539 2.48328 10.0004 2.48328C13.1254 2.48328 16.0837 4.31661 18.1171 7.49994C19.0004 8.87494 19.0004 11.1166 18.1171 12.4999C16.0837 15.6833 13.1254 17.5166 10.0004 17.5166ZM10.0004 3.73328C7.30872 3.73328 4.73372 5.34994 2.93372 8.17494C2.30872 9.14994 2.30872 10.8499 2.93372 11.8249C4.73372 14.6499 7.30872 16.2666 10.0004 16.2666C12.6921 16.2666 15.2671 14.6499 17.0671 11.8249C17.6921 10.8499 17.6921 9.14994 17.0671 8.17494C15.2671 5.34994 12.6921 3.73328 10.0004 3.73328Z" fill="#9B9B9B"/>
</svg>
