<svg width="34" height="34" viewBox="0 0 34 34" fill="none" xmlns="http://www.w3.org/2000/svg">
<path d="M22.2607 7.65963C21.3792 6.57576 19.7422 6.10156 17.6959 6.10156H11.6829C11.2737 6.10156 10.8959 6.44027 10.8329 6.88059L8.3144 23.9516C8.25144 24.2903 8.50329 24.5951 8.8181 24.5951H12.5329L13.4774 18.2274L13.4459 18.4306C13.5088 17.9903 13.8551 17.6516 14.2959 17.6516H16.0588C19.5218 17.6516 22.2292 16.1274 23.0163 11.758C23.0477 11.6225 23.0477 11.487 23.0792 11.3854C22.9848 11.3177 22.9848 11.3177 23.0792 11.3854C23.2996 9.75963 23.0792 8.67576 22.2607 7.65963Z" fill="#263B80"/>
<path d="M23.0789 11.3857C23.0474 11.5212 23.0474 11.6228 23.016 11.7583C22.2289 16.1277 19.5215 17.6519 16.0585 17.6519H14.2956C13.8863 17.6519 13.5085 17.9906 13.4456 18.4309L12.2808 26.3228C12.2493 26.6277 12.4382 26.8986 12.7215 26.8986H15.8382C16.2159 26.8986 16.5308 26.5938 16.5937 26.2212L16.6252 26.0519L17.2234 22.0551L17.2548 21.818C17.3178 21.4115 17.6326 21.1406 18.0104 21.1406H18.4826C21.5048 21.1406 23.8659 19.8196 24.5585 15.9922C24.8419 14.4003 24.6845 13.0454 23.9289 12.1309C23.6771 11.8261 23.3937 11.589 23.0789 11.3857Z" fill="#139AD6"/>
<path d="M22.2296 11.047C22.1037 11.0132 21.9778 10.9793 21.8518 10.9454C21.7259 10.9115 21.6 10.8777 21.4426 10.8777C20.9704 10.7761 20.4352 10.7422 19.9 10.7422H15.2093C15.0833 10.7422 14.9889 10.7761 14.8944 10.8099C14.6741 10.9115 14.5167 11.1486 14.4852 11.4196L13.4778 18.2277L13.4463 18.4309C13.5093 17.9906 13.8555 17.6519 14.2963 17.6519H16.0593C19.5222 17.6519 22.2296 16.1277 23.0167 11.7583C23.0481 11.6228 23.0481 11.4873 23.0796 11.3857C22.8907 11.2841 22.6704 11.1825 22.4185 11.0809C22.3555 11.0809 22.2926 11.047 22.2296 11.047Z" fill="#232C65"/>
<path d="M17.6644 6.10156H11.6829C11.2737 6.10156 10.8959 6.44027 10.8329 6.88059L9.38477 16.6354L19.0811 6.20318C18.6403 6.13543 18.1681 6.10156 17.6644 6.10156Z" fill="#2A4DAD"/>
<path d="M24.2126 12.6051C24.1181 12.4357 24.0551 12.2664 23.9292 12.097C23.7088 11.8261 23.394 11.589 23.0792 11.3857C23.0477 11.5212 23.0477 11.6228 23.0163 11.7583C22.2292 16.1277 19.5218 17.6519 16.0588 17.6519H14.2959C13.8866 17.6519 13.5088 17.9906 13.4459 18.4309L12.4385 25.2728L24.2126 12.6051Z" fill="#0D7DBC"/>
<path d="M8.81822 24.595H12.533L13.446 18.4305C13.446 18.3288 13.4775 18.2611 13.509 18.1934L8.346 23.7482L8.31451 23.9514C8.28303 24.2901 8.5034 24.595 8.81822 24.595Z" fill="#232C65"/>
<path d="M16.5313 6.10156H11.6831C11.5572 6.10156 11.4627 6.13543 11.3683 6.1693L10.8961 6.67737C10.8646 6.74511 10.8331 6.81285 10.8331 6.88059L9.88867 13.2483L16.5313 6.10156Z" fill="#436BC4"/>
<path d="M24.5589 15.9584C24.6533 15.4503 24.6848 14.9761 24.6848 14.502L18.5459 21.1068C21.5366 21.0729 23.8663 19.752 24.5589 15.9584Z" fill="#0CB2ED"/>
<path d="M16.6258 26.0521L17.1295 22.665L13.1943 26.8989H15.8703C16.248 26.8989 16.5629 26.5941 16.6258 26.2215V26.0521Z" fill="#0CB2ED"/>
<g opacity="0.6">
<path d="M22.8896 12.3004L24.6841 14.231C24.6841 13.9939 24.6211 13.7568 24.5896 13.5197L23.0156 11.8262C22.9526 11.9955 22.9211 12.131 22.8896 12.3004Z" fill="#33E2FF"/>
<path d="M22.4496 13.7227C22.3867 13.8581 22.3237 13.9936 22.2607 14.1291L24.433 16.4662C24.4644 16.2969 24.4959 16.1275 24.5274 15.9581L22.4496 13.7227Z" fill="#33E2FF"/>
<path d="M23.8032 18.2619C23.8662 18.1264 23.9291 17.9909 23.9921 17.8554L21.5995 15.2812C21.5051 15.3829 21.4421 15.5183 21.3477 15.62L23.8032 18.2619Z" fill="#33E2FF"/>
<path d="M20.0254 16.7039L22.7643 19.6507C22.8587 19.5491 22.9532 19.4474 23.0476 19.3458L20.3717 16.4668C20.2458 16.5345 20.1513 16.6023 20.0254 16.7039Z" fill="#33E2FF"/>
<path d="M18.3564 17.3806L21.3472 20.5983C21.4731 20.5306 21.599 20.4629 21.725 20.3951L18.7972 17.2451C18.6398 17.279 18.5139 17.3467 18.3564 17.3806Z" fill="#33E2FF"/>
<path d="M19.4589 21.073C19.6163 21.0391 19.8052 21.0391 19.9626 21.0053L16.8145 17.6182C16.6256 17.6182 16.4682 17.652 16.2793 17.652L19.4589 21.073Z" fill="#33E2FF"/>
<path d="M14.5476 17.6523H14.2958C14.2014 17.6523 14.1069 17.6862 14.0439 17.6862L17.4439 21.3781C17.5384 21.2765 17.6643 21.1749 17.7902 21.1411L14.5476 17.6523Z" fill="#33E2FF"/>
<path d="M13.2881 19.413L17.0029 23.4098L17.0973 22.8679L13.3825 18.8711L13.2881 19.413Z" fill="#33E2FF"/>
<path d="M12.9736 21.5471L16.6884 25.5439L16.7829 25.0358L13.0681 21.0391L12.9736 21.5471Z" fill="#33E2FF"/>
<path d="M12.7534 23.1729L12.6904 23.7148L15.6497 26.8987H15.8701C15.9645 26.8987 16.0589 26.8648 16.1534 26.8309L12.7534 23.1729Z" fill="#33E2FF"/>
<path d="M12.3438 25.8489L13.3197 26.8989H13.8863L12.4382 25.3408L12.3438 25.8489Z" fill="#33E2FF"/>
</g>
</svg>
