<svg width="34" height="34" viewBox="0 0 34 34" fill="none" xmlns="http://www.w3.org/2000/svg">
<path fill-rule="evenodd" clip-rule="evenodd" d="M13.7122 12.2285L11.9854 21.7787H14.7482L16.4753 12.2285H13.7122ZM9.6608 12.2285L7.02661 18.7971L6.71502 17.3826L6.71524 17.3831L6.64658 17.0661C6.32777 16.4478 5.58941 15.2727 4.19519 14.2699C3.783 13.9734 3.36749 13.7205 2.96582 13.5044L5.35988 21.7787H8.23854L12.6345 12.2285H9.6608ZM20.4437 14.8799C20.4437 13.8001 23.1345 13.9389 24.3169 14.5252L24.7111 12.474C24.7111 12.474 23.4943 12.0576 22.226 12.0576C20.8548 12.0576 17.5988 12.5972 17.5988 15.2191C17.5988 17.6867 21.4204 17.7174 21.4204 19.0128C21.4204 20.3083 17.9929 20.0768 16.8617 19.2596L16.4506 21.4035C16.4506 21.4035 17.6843 21.9431 19.5697 21.9431C21.4548 21.9431 24.2996 21.0642 24.2996 18.6736C24.2996 16.1906 20.4437 15.9593 20.4437 14.8799ZM31.7182 12.2285H29.4968C28.471 12.2285 28.2213 12.9403 28.2213 12.9403L24.1009 21.7787H26.9807L27.5568 20.3603H31.0693L31.3933 21.7787H33.9302L31.7182 12.2285ZM28.353 18.4005L29.8048 14.8266L30.6216 18.4005H28.353Z" fill="#005BAC"/>
<path fill-rule="evenodd" clip-rule="evenodd" d="M5.82388 13.1275C5.82388 13.1275 5.70952 12.2656 4.48861 12.2656H0.0529332L0.000976562 12.4276C0.000976562 12.4276 2.13311 12.8187 4.17863 14.2841C6.13341 15.6846 6.7711 17.4305 6.7711 17.4305L5.82388 13.1275Z" fill="#F6AC1D"/>
</svg>
