<svg width="34" height="34" viewBox="0 0 34 34" fill="none" xmlns="http://www.w3.org/2000/svg">
<path d="M24.5 7C29.746 7 34 11.253 34 16.5C34 21.747 29.746 26 24.5 26C21.451 26 18.7369 24.564 17 22.331C18.254 20.721 19 18.6981 19 16.5C19 14.302 18.254 12.279 17 10.669C18.7369 8.436 21.451 7 24.5 7Z" fill="#F79F1A"/>
<path d="M17 10.6689C18.254 12.2789 19 14.3019 19 16.4999C19 18.6979 18.254 20.7209 17 22.3309C15.746 20.7209 15 18.698 15 16.4999C15 14.3019 15.746 12.2789 17 10.6689Z" fill="#FF5F01"/>
<path d="M9.5 7C12.549 7 15.263 8.436 17 10.669C15.746 12.279 15 14.302 15 16.5C15 18.698 15.746 20.721 17 22.331C15.263 24.564 12.549 26 9.5 26C4.253 26 0 21.747 0 16.5C0 11.253 4.253 7 9.5 7Z" fill="#EA001B"/>
<path d="M16.968 16.348V16.7154H17.0321V16.348H17.1836V16.2842H16.8164V16.348H16.968Z" fill="black"/>
<path d="M31.8938 15.9356C31.2389 15.0652 29.5059 15.5283 29.5059 17.0457C29.5059 18.5951 31.3028 19.0103 31.8938 18.1558V18.5232H32.5247V14.3945H31.8938V15.9356ZM31.0472 17.98C30.5042 17.98 30.1528 17.5648 30.1528 17.0457C30.1528 16.5265 30.5043 16.1114 31.0472 16.1114C31.5744 16.1114 31.9417 16.5264 31.9417 17.0457C31.9417 17.5889 31.5744 17.98 31.0472 17.98Z" fill="black"/>
<path d="M7.96788 15.9352C7.75228 15.6716 7.44888 15.5039 7.03348 15.5039C6.21088 15.5039 5.58008 16.1588 5.58008 17.0452C5.58008 17.9397 6.21098 18.5866 7.03348 18.5866C7.44888 18.5866 7.75228 18.4348 7.96788 18.1553V18.5227H8.59888V15.5837H7.96788V15.9352ZM7.12138 17.9796C6.55428 17.9796 6.22698 17.5644 6.22698 17.0453C6.22698 16.5261 6.55428 16.111 7.12138 16.111C7.64038 16.111 7.98388 16.526 7.99178 17.0453C7.99178 17.5885 7.64048 17.9796 7.12138 17.9796Z" fill="black"/>
<path d="M16.5286 15.4961C15.6823 15.4961 15.0752 16.1272 15.0752 17.0375C15.0752 18.6747 16.8801 18.9463 17.7745 18.1716L17.4711 17.6924C16.8482 18.2036 15.9057 18.1556 15.7222 17.3011H17.9183C17.9183 16.0073 17.3273 15.4961 16.5286 15.4961ZM15.7461 16.782C15.81 16.3667 16.0734 16.0873 16.5047 16.0873C16.9198 16.0873 17.1996 16.3268 17.2714 16.782H15.7461Z" fill="black"/>
<path d="M25.9603 15.9355C25.2974 15.057 23.5723 15.5521 23.5723 17.0456C23.5723 18.5789 25.3614 19.0181 25.9603 18.1557V18.5231H26.6152V15.5841H25.9603V15.9355ZM25.1137 17.9799C24.5707 17.9799 24.2433 17.5647 24.2433 17.0456C24.2433 16.5264 24.5707 16.1113 25.1137 16.1113C25.6567 16.1113 26.0081 16.5263 26.0081 17.0456C26.0081 17.5888 25.6566 17.9799 25.1137 17.9799Z" fill="black"/>
<path d="M3.83882 15.5049C3.47142 15.5049 3.08022 15.6167 2.81652 16.0238C2.62482 15.6966 2.29752 15.5049 1.84222 15.5049C1.53872 15.5049 1.23532 15.6167 0.99582 15.9362V15.5847H0.34082V18.5157H0.99572C0.99572 17.0063 0.79602 16.104 1.71442 16.104C2.52902 16.104 2.36932 16.9185 2.36932 18.5157H3.00022C3.00022 17.0544 2.80052 16.104 3.71892 16.104C4.53352 16.104 4.37382 16.9025 4.37382 18.5157H5.02862V16.6789H5.01262C5.01262 15.9838 4.55762 15.5288 3.83882 15.5049Z" fill="black"/>
<path d="M10.0042 16.4145C10.0042 15.9592 10.9545 16.0312 11.4815 16.3267L11.7451 15.8076C10.9944 15.3205 9.33329 15.3285 9.33329 16.4626C9.33329 17.6045 11.1621 17.1254 11.1621 17.6605C11.1621 18.1636 10.084 18.1236 9.50909 17.7244L9.22949 18.2276C10.1239 18.8343 11.8328 18.7068 11.8328 17.6285C11.8329 16.4307 10.0042 16.9735 10.0042 16.4145Z" fill="black"/>
<path d="M13.5099 17.5012V16.1756H14.556V15.5846H13.5099V14.6904H12.855V15.5846H12.248V16.1675H12.855V17.5012C12.855 18.907 14.2365 18.6512 14.6597 18.3718L14.484 17.8287C14.1807 17.9963 13.5099 18.18 13.5099 17.5012Z" fill="black"/>
<path d="M19.2283 15.9356V15.5841H18.5732V18.5151H19.2283V16.862C19.2283 15.9356 19.987 16.0554 20.2505 16.1912L20.442 15.5842C20.0748 15.4246 19.5158 15.4404 19.2283 15.9356Z" fill="black"/>
<path d="M22.9416 16.3748L23.2449 15.8557C22.3187 15.129 20.6338 15.5283 20.6338 17.0537C20.6338 18.6349 22.4225 18.9543 23.2449 18.2515L22.9416 17.7325C22.2068 18.2515 21.2884 17.9402 21.2884 17.0457C21.2884 16.1352 22.2148 15.8395 22.9416 16.3748Z" fill="black"/>
<path d="M28.0928 15.9352V15.5837H27.4619V18.5147H28.0928V16.8616C28.0928 15.9829 28.8116 16.039 29.1151 16.1908L29.3068 15.5838C29.115 15.488 28.4282 15.3522 28.0928 15.9352Z" fill="black"/>
<path d="M33.6345 18.1563C33.6105 18.1324 33.5945 18.0923 33.5705 18.0684C33.5465 18.0445 33.5065 18.0287 33.4827 18.0045C33.4428 18.0045 33.3948 17.9805 33.3548 17.9805C33.331 17.9805 33.2909 18.0045 33.2432 18.0045C33.2031 18.0286 33.1791 18.0444 33.1553 18.0684C33.1154 18.0923 33.0914 18.1324 33.0914 18.1563C33.0674 18.1962 33.0674 18.2443 33.0674 18.2841C33.0674 18.308 33.0674 18.348 33.0914 18.3957C33.0914 18.4197 33.1153 18.4598 33.1553 18.4837C33.1791 18.5076 33.1953 18.5236 33.2432 18.5476C33.283 18.5715 33.331 18.5715 33.3548 18.5715C33.3948 18.5715 33.4428 18.5715 33.4827 18.5476C33.5065 18.5237 33.5466 18.5077 33.5705 18.4837C33.5944 18.4597 33.6104 18.4197 33.6345 18.3957C33.6584 18.3479 33.6584 18.308 33.6584 18.2841C33.6584 18.2442 33.6584 18.1962 33.6345 18.1563Z" fill="black"/>
<path d="M17.2399 16.2842H17.1282L17.0002 16.5637L16.8725 16.2842H16.7607V16.7154H16.8247V16.3879L16.9524 16.6676H17.0401L17.1521 16.3879V16.7154H17.2399V16.2842Z" fill="black"/>
</svg>
