<svg width="34" height="34" viewBox="0 0 34 34" fill="none" xmlns="http://www.w3.org/2000/svg">
<path fill-rule="evenodd" clip-rule="evenodd" d="M0 22.5204H3.66984V19.2804C4.47936 19.2804 5.23492 19.2804 6.04444 19.2804C6.15238 19.2804 6.26032 19.2804 6.42222 19.2804C6.90794 19.2204 7.39365 19.1604 7.77143 18.9804C8.20317 18.8604 8.52698 18.6204 8.79682 18.3804C9.06667 18.1404 9.33651 17.8404 9.49841 17.5404C9.71428 17.2404 9.82222 16.8204 9.93016 16.4004C10.0381 15.9804 10.0921 15.5004 10.0381 15.0204C10.0381 14.5404 9.98413 14.1204 9.82222 13.7604C9.71429 13.4004 9.55238 13.0404 9.33651 12.7404C9.1746 12.4404 8.90476 12.2004 8.63492 12.0204C8.31111 11.8404 7.9873 11.6604 7.55556 11.5404C7.12381 11.4204 6.63809 11.3604 6.09841 11.3604H0V22.5204ZM3.66984 13.8804C4.26349 13.8804 4.80317 13.8204 5.39682 13.9404C5.50476 13.9404 5.66667 14.0004 5.7746 14.0604C5.88254 14.1204 5.99048 14.1804 6.04444 14.2404C6.42222 14.6604 6.53016 15.0804 6.42222 15.5604C6.36825 15.8004 6.31429 15.9804 6.15238 16.1604C6.09841 16.2204 5.99048 16.3404 5.88254 16.4004C5.50476 16.6404 5.01905 16.7004 4.53333 16.7004H3.66984V13.8804Z" fill="#6E7A8E"/>
<path fill-rule="evenodd" clip-rule="evenodd" d="M0 22.5204H3.66984V19.2804C4.47936 19.2804 5.23492 19.2804 6.04444 19.2804C6.15238 19.2804 6.26032 19.2804 6.42222 19.2804C6.90794 19.2204 7.39365 19.1604 7.77143 18.9804C8.20317 18.8604 8.52698 18.6204 8.79682 18.3804C9.06667 18.1404 9.33651 17.8404 9.49841 17.5404C9.71428 17.2404 9.82222 16.8204 9.93016 16.4004C10.0381 15.9804 10.0921 15.5004 10.0381 15.0204C10.0381 14.5404 9.98413 14.1204 9.82222 13.7604C9.71429 13.4004 9.55238 13.0404 9.33651 12.7404C9.1746 12.4404 8.90476 12.2004 8.63492 12.0204C8.31111 11.8404 7.9873 11.6604 7.55556 11.5404C7.12381 11.4204 6.63809 11.3604 6.09841 11.3604L0 15.4404V22.5204ZM3.66984 13.8804C4.26349 13.8804 4.80317 13.8204 5.39682 13.9404C5.50476 13.9404 5.66667 14.0004 5.7746 14.0604C5.88254 14.1204 5.99048 14.1804 6.04444 14.2404C6.42222 14.6604 6.53016 15.0804 6.42222 15.5604C6.36825 15.8004 6.31429 15.9804 6.15238 16.1604C6.09841 16.2204 5.99048 16.3404 5.88254 16.4004C5.50476 16.6404 5.01905 16.7004 4.53333 16.7004H3.66984V13.8804Z" fill="#505F7C"/>
<path fill-rule="evenodd" clip-rule="evenodd" d="M7.01562 22.5199H10.6855V19.2799C11.495 19.2799 12.2505 19.2799 13.0601 19.2799C13.168 19.2799 13.2759 19.2799 13.4378 19.2799C13.9236 19.2199 14.4093 19.1599 14.7871 18.9799C15.2188 18.8599 15.5426 18.6199 15.8125 18.3799C16.0823 18.1399 16.3521 17.8399 16.514 17.5399C16.7299 17.2399 16.8378 16.8199 16.9458 16.3999C17.0537 15.9799 17.1077 15.4999 17.0537 15.0199C17.0537 14.5399 16.9998 14.1199 16.8378 13.6999C16.7299 13.3999 16.568 13.0999 16.4061 12.7999C16.1902 12.4999 15.9204 12.2599 15.6505 12.0799C15.3267 11.8999 15.0029 11.7199 14.5712 11.5999C14.1394 11.4799 13.6537 11.4199 13.114 11.4199H7.01562V22.5199ZM10.6855 13.9399C11.2791 13.9399 11.8188 13.8799 12.4125 13.9999C12.5204 13.9999 12.6823 14.0599 12.7902 14.1199C12.8982 14.1799 13.0061 14.2399 13.0601 14.2999C13.4378 14.7199 13.5458 15.1399 13.4378 15.6199C13.3839 15.8599 13.3299 16.0399 13.168 16.2199C13.114 16.2799 13.0061 16.3999 12.8982 16.4599C12.5204 16.6999 12.0347 16.7599 11.549 16.7599H10.6315V13.9399H10.6855Z" fill="#6E7A8E"/>
<path fill-rule="evenodd" clip-rule="evenodd" d="M7.01562 22.5199H10.6855V19.2799C11.495 19.2799 12.2505 19.2799 13.0601 19.2799C13.168 19.2799 13.2759 19.2799 13.4378 19.2799C13.9236 19.2199 14.4093 19.1599 14.7871 18.9799C15.2188 18.8599 15.5426 18.6199 15.8125 18.3799C16.0823 18.1399 16.3521 17.8399 16.514 17.5399C16.7299 17.2399 16.8378 16.8199 16.9458 16.3999C17.0537 15.9799 17.1077 15.4999 17.0537 15.0199C17.0537 14.5399 16.9998 14.1199 16.8378 13.6999C16.7299 13.3999 16.568 13.0999 16.4061 12.7999C16.1902 12.4999 15.9204 12.2599 15.6505 12.0799C15.3267 11.8999 15.0029 11.7199 14.5712 11.5999C14.1394 11.4799 13.6537 11.4199 13.114 11.4199L7.01562 15.4399V22.5199ZM10.6855 13.9399C11.2791 13.9399 11.8188 13.8799 12.4125 13.9999C12.5204 13.9999 12.6823 14.0599 12.7902 14.1199C12.8982 14.1799 13.0061 14.2399 13.0601 14.2999C13.4378 14.7199 13.5458 15.1399 13.4378 15.6199C13.3839 15.8599 13.3299 16.0399 13.168 16.2199C13.114 16.2799 13.0061 16.3999 12.8982 16.4599C12.5204 16.6999 12.0347 16.7599 11.549 16.7599H10.6315V13.9399H10.6855Z" fill="#505F7C"/>
<path fill-rule="evenodd" clip-rule="evenodd" d="M7.01562 19.1605C7.17753 19.1005 7.33943 19.1005 7.50134 19.0405C7.87912 18.9205 8.20293 18.8005 8.52674 18.5605C8.85055 18.3805 9.06642 18.1405 9.28229 17.8405C9.49817 17.5405 9.66007 17.2405 9.82197 16.8805C9.92991 16.5205 10.0378 16.1005 10.0378 15.6205C10.0918 15.2005 10.0378 14.7205 9.98388 14.3005C9.92991 13.8805 9.82197 13.5205 9.66007 13.2205C9.49816 12.9205 9.28229 12.6205 9.06642 12.3805C8.79658 12.1405 8.52674 11.9605 8.20293 11.7805C7.82515 11.6005 7.44737 11.4805 7.01562 11.4805V19.1605Z" fill="#F4C82E"/>
<path fill-rule="evenodd" clip-rule="evenodd" d="M17.6475 12.0205H19.9141C20.3998 12.0205 20.7776 12.1405 20.9935 12.3805C21.1014 12.5005 21.2094 12.6805 21.2633 12.8605C21.3173 13.0405 21.3713 13.2805 21.3713 13.5205C21.3713 14.0005 21.2633 14.4205 20.9935 14.6605C20.8856 14.7805 20.6697 14.9005 20.5078 14.9605C20.13 15.0805 19.5903 15.0805 19.0506 15.0805V16.8805H17.7014V12.0205H17.6475ZM19.0506 14.1205H19.3744C19.6443 14.1205 19.8062 14.0605 19.9141 14.0005C20.0221 13.8805 20.076 13.7605 20.076 13.6405C20.076 13.4605 20.0221 13.3405 19.9141 13.2805C19.8602 13.2205 19.8062 13.1605 19.6983 13.1605C19.5363 13.1005 19.2665 13.1005 18.9967 13.1005V14.1205H19.0506Z" fill="#505F7C"/>
<path fill-rule="evenodd" clip-rule="evenodd" d="M21.4253 14.3607C21.4793 14.1207 21.5333 13.9407 21.5872 13.8207C21.6412 13.7607 21.6952 13.7007 21.7491 13.6407C21.8031 13.5807 21.8571 13.5207 21.965 13.4607C22.1809 13.3407 22.6666 13.2207 23.0444 13.2207C23.4221 13.2207 23.692 13.2207 23.9079 13.2807C24.0158 13.2807 24.1237 13.3407 24.2317 13.4007C24.3396 13.4607 24.3936 13.5207 24.5015 13.5807C24.7174 13.7607 24.8253 14.1807 24.8253 14.5407V16.1007C24.8253 16.4007 24.8253 16.5207 24.8793 16.6407C24.8793 16.7007 24.9333 16.7607 24.9333 16.8207H23.7999C23.692 16.6407 23.692 16.5807 23.692 16.5207C23.692 16.4607 23.692 16.4607 23.692 16.4007C23.5301 16.5807 23.3682 16.7007 23.2063 16.7607C22.9904 16.8807 22.7206 16.8807 22.4507 16.8807C22.0729 16.8807 21.8031 16.7607 21.5872 16.5807C21.4793 16.4607 21.4253 16.4007 21.3714 16.2807C21.3174 16.1607 21.3174 16.0407 21.3174 15.8607C21.3174 15.7407 21.3174 15.6207 21.3714 15.5007C21.4253 15.3807 21.4793 15.3207 21.5333 15.2007C21.5872 15.1407 21.6952 15.0207 21.8571 14.9607C21.965 14.9007 22.1269 14.8407 22.3428 14.7807C22.7745 14.6607 23.0983 14.6007 23.2063 14.5407C23.3682 14.4807 23.4761 14.4207 23.638 14.3607C23.638 14.1807 23.584 14.0607 23.5301 14.0007C23.4221 13.9407 23.3142 13.8807 23.2063 13.8807C23.0983 13.8807 23.0444 13.8807 22.9364 13.8807C22.8285 13.9407 22.7206 13.9407 22.6666 14.0607C22.6126 14.1207 22.6126 14.1807 22.5587 14.2407L21.4253 14.3607ZM23.638 15.2607C23.4761 15.3207 23.3142 15.3807 23.0983 15.4407C22.9904 15.5007 22.8825 15.5007 22.7745 15.5607C22.7206 15.6207 22.6666 15.6207 22.6126 15.6807C22.5587 15.7407 22.5047 15.8607 22.5047 15.9207C22.5047 16.0407 22.5587 16.1007 22.6126 16.1607C22.7206 16.2207 22.7745 16.2807 22.8825 16.2807C23.0444 16.2807 23.1523 16.2207 23.2602 16.1607C23.4761 16.0407 23.5301 15.8607 23.584 15.7407C23.638 15.5607 23.584 15.3807 23.638 15.2607Z" fill="#505F7C"/>
<path fill-rule="evenodd" clip-rule="evenodd" d="M24.8252 13.4004H26.1204L26.7681 15.7404L27.3617 13.4004H28.549L27.3077 17.1804C27.2538 17.4204 27.1458 17.6004 27.0919 17.7204C27.0379 17.8404 26.93 17.9604 26.876 18.0204C26.7681 18.1404 26.6601 18.2004 26.4982 18.2604C26.3363 18.3204 26.1744 18.3204 25.9585 18.3204C25.8506 18.3204 25.7427 18.3204 25.6347 18.3204C25.5268 18.3204 25.3649 18.2604 25.149 18.2604L25.0411 17.3004C25.203 17.3604 25.4188 17.4204 25.6347 17.4204C25.7966 17.4204 25.9046 17.3604 25.9585 17.3004C26.0125 17.2404 26.0665 17.2404 26.0665 17.1204C26.1204 17.0604 26.1204 17.0004 26.1744 16.8804L24.8252 13.4004Z" fill="#505F7C"/>
<path fill-rule="evenodd" clip-rule="evenodd" d="M17.6475 17.7207H19.9141C20.3998 17.7207 20.7776 17.8407 20.9935 18.0807C21.1014 18.2007 21.2094 18.3807 21.2633 18.5607C21.3173 18.7407 21.3713 18.9807 21.3713 19.2207C21.3713 19.7007 21.2633 20.1207 20.9935 20.3607C20.8856 20.4807 20.6697 20.6007 20.5078 20.6607C20.13 20.7807 19.5903 20.7807 19.0506 20.7807V22.5807H17.7014V17.7207H17.6475ZM19.0506 19.7607H19.3744C19.6443 19.7607 19.8062 19.7007 19.9141 19.6407C20.0221 19.5207 20.076 19.4007 20.076 19.2807C20.076 19.1007 20.0221 18.9807 19.9141 18.9207C19.8602 18.8607 19.8062 18.8007 19.6983 18.8007C19.5363 18.7407 19.2665 18.7407 18.9967 18.7407V19.7607H19.0506Z" fill="#F4C82E"/>
<path fill-rule="evenodd" clip-rule="evenodd" d="M21.8571 19.4599C22.019 19.2799 22.2348 19.1599 22.4507 19.0399C22.6666 18.9199 22.9364 18.9199 23.2063 18.9199C23.5301 18.9199 23.7999 18.9799 24.0158 19.0999C24.2317 19.2199 24.4475 19.3399 24.6094 19.5799C24.7174 19.7599 24.8253 19.9399 24.8793 20.1199C24.9333 20.2999 24.9872 20.5399 24.9872 20.7799C24.9872 21.3199 24.8253 21.7399 24.5015 22.0999C24.3396 22.2799 24.1237 22.3999 23.9079 22.4599C23.692 22.5199 23.4221 22.5799 23.1523 22.5799C22.8825 22.5799 22.6666 22.5199 22.4507 22.4599C22.2348 22.3999 22.0729 22.2799 21.911 22.1599C21.6952 21.9799 21.5872 21.7999 21.4793 21.5599C21.3714 21.3199 21.3174 21.0799 21.3174 20.7799C21.3714 20.2999 21.5333 19.8199 21.8571 19.4599ZM22.7745 21.4999C22.8825 21.6799 23.0444 21.7399 23.2063 21.7399C23.3682 21.7399 23.5301 21.6799 23.638 21.4999C23.692 21.4399 23.746 21.3199 23.746 21.1999C23.7999 21.0799 23.7999 20.9599 23.7999 20.7799C23.7999 20.4799 23.746 20.2399 23.638 20.1199C23.5301 19.9399 23.3682 19.8799 23.2063 19.8799C23.0444 19.8799 22.8825 19.9399 22.7745 20.1199C22.7206 20.1799 22.6666 20.2999 22.6666 20.4199C22.6126 20.5399 22.6126 20.6599 22.6126 20.8399C22.5587 21.1399 22.6666 21.3799 22.7745 21.4999Z" fill="#F4C82E"/>
<path fill-rule="evenodd" clip-rule="evenodd" d="M27.3616 19.04H28.4949V19.64C28.6568 19.4 28.8187 19.22 28.9806 19.16C29.1965 19.04 29.4124 19.04 29.6283 19.04C29.9521 19.04 30.2219 19.16 30.4378 19.4C30.5457 19.52 30.5997 19.64 30.6536 19.82C30.7076 20 30.7076 20.18 30.7076 20.42V22.64H29.4663V20.6C29.4663 20.36 29.4124 20.24 29.3584 20.12C29.2505 20 29.1425 20 29.0346 20C28.8727 20 28.7648 20.06 28.6568 20.18C28.6029 20.24 28.6029 20.3 28.5489 20.42C28.5489 20.54 28.4949 20.66 28.4949 20.84V22.52H27.3076V19.04H27.3616Z" fill="#F7AE0D"/>
<path fill-rule="evenodd" clip-rule="evenodd" d="M32.7584 17.7207V19.0407H33.4061V20.0007H32.7584V21.2607C32.7584 21.3207 32.7584 21.3807 32.7584 21.4407C32.7584 21.5007 32.7584 21.5007 32.8124 21.5607C32.9203 21.7407 33.0283 21.6807 33.1902 21.6807C33.2442 21.6807 33.2981 21.6207 33.4061 21.6207L33.514 22.5807C33.2442 22.6407 32.9743 22.7007 32.6505 22.7007C32.3267 22.7007 32.1108 22.6407 32.0029 22.5807C31.841 22.5207 31.733 22.3407 31.6791 22.1607C31.6251 22.1007 31.6251 21.9807 31.6251 21.8007C31.6251 21.6807 31.6251 21.5007 31.6251 21.3207V20.0607H31.1934V19.1007H31.6251V18.4407L32.7584 17.7207Z" fill="#F7AE0D"/>
<path d="M26.66 19.04H25.4727V22.58H26.66V19.04Z" fill="#F4C82E"/>
<path fill-rule="evenodd" clip-rule="evenodd" d="M9.76801 13.5801L7.01562 15.4401V19.1601C7.17753 19.1001 7.33943 19.1001 7.50134 19.0401C7.87912 18.9201 8.20293 18.8001 8.52674 18.5601C8.85055 18.3801 9.06642 18.1401 9.28229 17.8401C9.49817 17.5401 9.66007 17.2401 9.82197 16.8801C9.92991 16.5201 10.0378 16.1001 10.0378 15.6201C10.0918 15.2001 10.0378 14.7201 9.98388 14.3001C9.92991 14.0001 9.87594 13.7601 9.76801 13.5801Z" fill="#F7AE0D"/>
<path fill-rule="evenodd" clip-rule="evenodd" d="M26.7139 19.1006L25.4727 19.8806V22.5806H26.7139V19.1006Z" fill="#F7AE0D"/>
<path fill-rule="evenodd" clip-rule="evenodd" d="M22.5052 22.5208C22.7211 22.5808 22.937 22.6408 23.2068 22.6408C23.4767 22.6408 23.7465 22.5808 23.9624 22.5208C24.1783 22.4608 24.3941 22.2808 24.556 22.1608C24.8798 21.8008 25.0418 21.3808 25.0418 20.8408C25.0418 20.6608 25.0418 20.4808 24.9878 20.3008L23.7465 21.0808C23.7465 21.1408 23.7465 21.2008 23.7465 21.2608C23.6925 21.3808 23.6925 21.5008 23.6386 21.5608C23.5306 21.6808 23.3687 21.8008 23.2068 21.8008C23.0989 21.8008 22.991 21.8008 22.937 21.7408L22.0195 22.3408C22.1275 22.4008 22.2894 22.4608 22.5052 22.5208Z" fill="#F7AE0D"/>
</svg>
