<svg width="24" height="25" viewBox="0 0 24 25" fill="none" xmlns="http://www.w3.org/2000/svg">
<path d="M16.8203 2.27734H7.18031C5.05031 2.27734 3.32031 4.01734 3.32031 6.13734V20.2273C3.32031 22.0273 4.61031 22.7873 6.19031 21.9173L11.0703 19.2073C11.5903 18.9173 12.4303 18.9173 12.9403 19.2073L17.8203 21.9173C19.4003 22.7973 20.6903 22.0373 20.6903 20.2273V6.13734C20.6803 4.01734 18.9503 2.27734 16.8203 2.27734ZM14.5003 11.6773H9.50031C9.09031 11.6773 8.75031 11.3373 8.75031 10.9273C8.75031 10.5173 9.09031 10.1773 9.50031 10.1773H14.5003C14.9103 10.1773 15.2503 10.5173 15.2503 10.9273C15.2503 11.3373 14.9103 11.6773 14.5003 11.6773Z" fill="white"/>
</svg>
