<svg width="103" height="149" viewBox="0 0 103 149" fill="none" xmlns="http://www.w3.org/2000/svg">
<g clip-path="url(#clip0_1260_593)">
<path fill-rule="evenodd" clip-rule="evenodd" d="M21.8618 85.357C21.4968 82.468 19.9958 80 17.8608 78.347C15.7278 76.693 12.9658 75.852 10.0758 76.217C7.18681 76.582 4.71781 78.084 3.06381 80.217C1.41081 82.35 0.568815 85.114 0.933815 88.003C1.29981 90.893 2.80281 93.362 4.93481 95.015C7.06881 96.669 9.83281 97.509 12.7228 97.143C15.6108 96.778 18.0788 95.276 19.7338 93.144C19.9938 92.807 20.2338 92.456 20.4538 92.091L36.0438 101.496L87.4348 110.615L21.8248 88.283C21.9698 87.337 21.9878 86.355 21.8618 85.357ZM15.6738 81.166C17.0848 82.26 18.0778 83.892 18.3208 85.806C18.5618 87.717 18.0058 89.546 16.9118 90.957C15.8168 92.369 14.1838 93.3619 12.2728 93.604C10.3618 93.8449 8.53281 93.288 7.12181 92.195C5.71081 91.101 4.71781 89.467 4.47481 87.556C4.23281 85.644 4.78881 83.815 5.88281 82.404C6.97881 80.992 8.61181 80 10.5228 79.758C12.4338 79.515 14.2628 80.071 15.6738 81.166Z" fill="#5DB8CC"/>
<path fill-rule="evenodd" clip-rule="evenodd" d="M48.3164 0.5C28.1544 13.721 17.4264 34.963 31.1714 56.419C33.7064 60.375 36.4654 63.931 38.8974 67.493C35.9234 51.917 25.5454 39.81 35.6464 24.327C30.9544 53.458 47.7854 57.4 45.7584 85.295C45.9444 91.707 43.7594 99.38 37.6214 109.465C29.1994 123.309 59.1694 97.399 56.4054 72.217C56.4054 72.217 66.2924 89.581 51.8584 110.602C37.4264 131.624 56.4054 142.993 61.7454 145.347C67.0824 147.702 67.0824 147.702 67.0824 147.702C67.0824 147.702 54.4924 137.848 60.1624 127.225C68.4914 111.623 72.7034 110.528 73.4094 91.557C73.4094 91.557 79.9334 97.323 76.9684 110.371C74.0034 123.419 78.2064 132.034 84.8784 135.562C91.5474 139.088 93.9134 138.089 96.3564 138.573C84.4844 128.781 83.6534 124.79 91.4374 106.864C97.1614 93.683 115.669 68.751 86.9314 78.986C78.2704 82.069 73.3284 82.109 72.7354 77.958C72.1414 73.806 71.3914 68.664 69.3724 68.664C67.3574 68.664 65.6964 67.717 65.6964 67.717L65.5774 63.564C65.5774 63.564 62.6124 63.209 61.5444 62.615C60.4774 62.022 62.0184 57.988 62.0184 57.988C62.0184 57.988 55.0184 57.632 53.9524 57.039C52.8834 56.446 60.3564 41.973 58.1044 39.007C55.8514 36.041 50.3934 35.33 48.9694 29.991C47.5844 24.802 47.6584 14.681 48.3164 0.5Z" fill="white"/>
<path fill-rule="evenodd" clip-rule="evenodd" d="M21.8618 111.946C21.4968 114.835 19.9958 117.303 17.8608 118.957C15.7278 120.611 12.9658 121.451 10.0758 121.087C7.18681 120.72 4.71781 119.218 3.06381 117.086C1.41081 114.953 0.568815 112.19 0.933815 109.3C1.29981 106.411 2.80281 103.944 4.93481 102.29C7.06881 100.635 9.83281 99.795 12.7228 100.161C15.6108 100.526 18.0788 102.028 19.7338 104.16C19.9938 104.496 20.2338 104.848 20.4538 105.215L36.0438 95.808L87.4348 86.691L21.8268 109.02C21.9698 109.965 21.9878 110.949 21.8618 111.946ZM15.6738 116.137C17.0848 115.043 18.0778 113.409 18.3208 111.499C18.5618 109.585 18.0058 107.757 16.9118 106.347C15.8168 104.935 14.1838 103.942 12.2728 103.701C10.3618 103.459 8.53281 104.014 7.12181 105.109C5.71081 106.203 4.71781 107.835 4.47481 109.747C4.23281 111.66 4.78881 113.488 5.88281 114.899C6.97881 116.31 8.61181 117.303 10.5228 117.545C12.4338 117.787 14.2628 117.231 15.6738 116.137Z" fill="#5DB8CC"/>
</g>
<defs>
<clipPath id="clip0_1260_593">
<rect width="102" height="148" fill="white" transform="translate(0.849609 0.5)"/>
</clipPath>
</defs>
</svg>
