<svg width="17" height="17" viewBox="0 0 17 17" fill="none" xmlns="http://www.w3.org/2000/svg">
<path d="M9.72499 2.48637L10.9717 4.9797C11.1417 5.32678 11.595 5.6597 11.9775 5.72345L14.2371 6.09887C15.6821 6.3397 16.0221 7.38803 14.9808 8.4222L13.2242 10.1789C12.9267 10.4764 12.7637 11.0501 12.8558 11.4609L13.3587 13.6355C13.7554 15.3568 12.8417 16.0226 11.3187 15.123L9.20082 13.8693C8.81832 13.6426 8.1879 13.6426 7.79832 13.8693L5.6804 15.123C4.16457 16.0226 3.24374 15.3497 3.6404 13.6355L4.14332 11.4609C4.2354 11.0501 4.07249 10.4764 3.77499 10.1789L2.01832 8.4222C0.984153 7.38803 1.31707 6.3397 2.76207 6.09887L5.02165 5.72345C5.39707 5.6597 5.8504 5.32678 6.0204 4.9797L7.26707 2.48637C7.94707 1.13345 9.05207 1.13345 9.72499 2.48637Z" fill="#FFC403"/>
</svg>
