<svg width="20" height="21" viewBox="0 0 20 21" fill="none" xmlns="http://www.w3.org/2000/svg">
<path d="M17.5 5.26042C14.725 4.98542 11.9333 4.84375 9.15 4.84375C7.5 4.84375 5.85 4.92708 4.2 5.09375L2.5 5.26042" stroke="#9B9B9B" stroke-width="1.5" stroke-linecap="round" stroke-linejoin="round"/>
<path d="M7.08301 4.41934L7.26634 3.32767C7.39967 2.536 7.49967 1.94434 8.90801 1.94434H11.0913C12.4997 1.94434 12.608 2.56934 12.733 3.336L12.9163 4.41934" stroke="#9B9B9B" stroke-width="1.5" stroke-linecap="round" stroke-linejoin="round"/>
<path d="M15.7087 7.89355L15.167 16.2852C15.0753 17.5936 15.0003 18.6102 12.6753 18.6102H7.32533C5.00033 18.6102 4.92533 17.5936 4.83366 16.2852L4.29199 7.89355" stroke="#9B9B9B" stroke-width="1.5" stroke-linecap="round" stroke-linejoin="round"/>
<path d="M8.6084 14.0273H11.3834" stroke="#9B9B9B" stroke-width="1.5" stroke-linecap="round" stroke-linejoin="round"/>
<path d="M7.91699 10.6943H12.0837" stroke="#9B9B9B" stroke-width="1.5" stroke-linecap="round" stroke-linejoin="round"/>
</svg>
